<?xml version="1.0" encoding="UTF-8"?>
<svg id="Layer_1" data-name="Layer 1" xmlns="http://www.w3.org/2000/svg" viewBox="0 0 833.35 810.81">
  <defs>
    <style>
      .cls-1 {
        fill: #b56d10;
      }

      .cls-2 {
        fill: #a10942;
      }

      .cls-3 {
        stroke: #f8b2b4;
        stroke-width: .02px;
      }

      .cls-3, .cls-4, .cls-5, .cls-6 {
        stroke-miterlimit: 10;
      }

      .cls-3, .cls-7 {
        fill: #f8b2b4;
      }

      .cls-8 {
        fill: #fff;
      }

      .cls-4 {
        stroke: #ed1c24;
      }

      .cls-4, .cls-9 {
        fill: #ed1c24;
      }

      .cls-10, .cls-6 {
        fill: #af1116;
      }

      .cls-5 {
        stroke: #231f20;
      }

      .cls-5, .cls-11 {
        fill: #231f20;
      }

      .cls-12 {
        fill: #b6292f;
      }

      .cls-6 {
        stroke: #af1116;
      }

      .cls-13 {
        fill: #f7941d;
      }

      .cls-14 {
        fill: #da1c5c;
      }

      .cls-15 {
        fill: #b78487;
      }
    </style>
  </defs>
  <path class="cls-12" d="m456.1,441.87c4.69,5.47,9.38,10.95,13.8,16.65-2.22-2.87-4.43-5.73-6.65-8.6,6.47,8.38,12.36,17.27,16.52,27.05-1.43-3.38-2.86-6.77-4.28-10.15,2.57,6.13,4.44,12.53,5.35,19.12-.51-3.77-1.01-7.53-1.52-11.3.66,5.08.72,10.21.05,15.29l1.52-11.3c-.65,4.58-1.89,9.03-3.67,13.3,1.43-3.38,2.86-6.77,4.28-10.15-2.16,5.09-5.04,9.81-8.42,14.18l6.65-8.6c-5.13,6.58-11.28,12.28-17.86,17.39l8.6-6.65c-6.38,4.92-13.17,9.29-20.12,13.35-4.95,2.67-8.93,6.32-11.92,10.95-3.76,4.1-6.29,8.92-7.61,14.45-1.77,5.65-2.02,11.3-.76,16.95.26,5.66,1.94,10.92,5.04,15.8l6.65,8.6c5.3,5.27,11.55,8.91,18.75,10.93,3.77.51,7.53,1.01,11.3,1.52,7.67-.02,14.82-1.96,21.45-5.8,4.51-2.64,8.96-5.39,13.27-8.36,2.12-1.46,4.2-2.96,6.25-4.52,4.8-3.67,9.68-7.29,14.27-11.23,3.92-3.36,7.62-6.99,10.94-10.95,3.83-4.57,7.53-9.28,10.92-14.2,1.42-2.07,2.73-4.21,3.9-6.43,2.82-5.35,5.1-11.03,7.21-16.67.87-2.32,1.57-4.69,2.11-7.11.3-1.37.54-2.75.74-4.14.73-5.04,1.59-10.13,1.91-15.22.18-2.99.12-5.99-.16-8.97-.9-9.55-2.16-19.19-5.37-28.27-.49-1.4-1.03-2.77-1.6-4.14-1.9-4.62-3.77-9.28-5.9-13.8-1.33-2.83-2.81-5.58-4.39-8.27-5.19-8.81-11.6-16.81-17.88-24.85-4.25-5.45-8.75-10.69-13.25-15.94-3.85-4.14-8.41-7.07-13.68-8.79-5.06-2.66-10.52-3.88-16.37-3.66-5.85-.22-11.31,1-16.37,3.66-5.27,1.71-9.83,4.64-13.68,8.79l-6.65,8.6c-3.84,6.63-5.78,13.78-5.8,21.45l1.52,11.3c2.02,7.2,5.66,13.45,10.93,18.75h0Z"/>
  <path class="cls-6" d="m290.4,109.03c2.43,2.85,4.93,5.52,7.78,8.14,7.76,7.14,24.36,22.48,41.21,21.51,23.62-1.35,42.03-32.64,46.49-54.64-27.75,19.24-62.71,31.29-95.47,24.98Z"/>
  <path class="cls-10" d="m725.97,413.23c-9.91-25.96-12.8-55.69-12.06-82.87-25.27,27.06-19.02,67.2-2.87,98.8,5.21-5.14,10.18-10.46,14.93-15.92Z"/>
  <path class="cls-9" d="m384.76,430.37c-42.35-26.13-75.05-68.15-90.26-115.69,29.2,109.84,132.11,188.04,243.22,188.21,57.96.09,109-21.09,149.66-52.93-98.52,32.49-214.15,36.21-302.61-19.59Z"/>
  <path class="cls-3" d="m575.15,324.45c-32.92-30.06-67.28-55.83-105.93-77.3-55.89-29.34-114.51-45.05-174.52-60.42-5.49,20.65-8.43,42.34-8.43,64.72s2.88,43.12,8.23,63.23c15.21,47.54,47.91,89.56,90.26,115.69,88.46,55.8,204.09,52.07,302.61,19.59,2.5-1.95,4.94-3.96,7.36-5.99-36.56-41.92-78.48-79.5-119.59-119.52Z"/>
  <path class="cls-9" d="m789.16,251.45C789.16,112.58,676.59,0,537.72,0c-85.7,0-161.36,42.88-206.76,108.34,21.98-4.54,43.23-15.2,60.96-28.68-17.73,13.48-38.98,24.13-60.96,28.68-16.31,23.52-28.71,49.96-36.26,78.38,60.01,15.38,118.63,31.08,174.52,60.42,38.65,21.47,73,47.24,105.93,77.3,41.11,40.03,83.02,77.61,119.59,119.52,5.65-4.75,11.1-9.69,16.3-14.82-16.15-31.6-22.4-71.74,2.87-98.8.03-1.02.06-2.03.09-3.04-.04,1.01-.07,2.03-.09,3.04.5-.54,1-1.08,1.53-1.61-.53.53-1.02,1.07-1.53,1.61-.73,27.18,2.15,56.92,12.06,82.87,27.94-32.17,47.58-69.35,56.8-105.15,7.01-27.2,6.4-48.56,6.4-56.63Z"/>
  <path class="cls-4" d="m783.07,266.78c-.69-1.71-4.21-2.68-5.39-1.65-1.04.91-.42,3.54,1.05,6.91,3.23-2.07,4.94-3.78,4.34-5.26Z"/>
  <path class="cls-4" d="m809.33,449.92s-9.9-17.78-16.93-40.36c-3.83-12.28-8.13-30.44-8.83-53.74l.97-72.88c-2.25-3.76-4.42-7.66-5.82-10.88-12.62,8.09-48.89,21.92-65.83,51.25-3.48,6.03-5.89,12.28-7.5,18.59,2.3-4.04,5.13-7.89,8.51-11.51.03-1.02.06-2.05.1-3.07-.04,1.02-.07,2.04-.1,3.07.51-.55.99-1.1,1.53-1.63-.53.53-1.02,1.09-1.53,1.63-1.02,37.91,4.99,80.79,27.29,111.45-22.3-30.66-28.31-73.54-27.29-111.45-3.37,3.62-6.21,7.47-8.51,11.51-6.44,25.33.34,51.7,5.29,69.01,4.58,16.01,19.26,58.92,58.16,84.66,10.02,6.63,27.45,17.81,45.64,12.52,2.96-.86,14.5-4.22,17.67-13.25,3.79-10.81-8.59-19.34-22.82-44.91Z"/>
  <path class="cls-4" d="m385.88,84.04c1.79-8.85,1.33-16.21-1.97-19.5-7.65-7.62-32.3,4.78-59.89,1.59-3.8-.44-9.83-1.18-17.08-3.98-7.66-2.96-15.07-7.6-16.91-8.77-1.46-.93-3.98-3.25-8.09-5.05-4.68-2.05-7.15-1.8-7.8-1.72-.7.09-4.31.62-6.93,3.62-1.11,1.27-2.47,3.48-2.72,8.49-.34,6.97,1.81,12.64,3.6,16.69,4.1,9.31,8.8,15.86,10.96,18.81,4.21,5.75,7.7,10.5,11.36,14.8,32.77,6.3,67.73-5.75,95.47-24.98Z"/>
  <path class="cls-15" d="m385.26,430.47c-45.94-28.35-80.5-75.42-93.66-127.96,23.99,116.09,130.56,200.2,246.02,200.38,58.07.09,109.19-21.08,149.86-52.89-98.38,32.47-213.87,36.21-302.22-19.53Z"/>
  <path class="cls-8" d="m315.4,192.08c-11.14,68.67,21.99,131.64,75.55,141.94,43.34,8.34,87.07-20.32,110.19-67.54-10.34-6.78-20.95-13.24-31.92-19.33-49.44-25.96-101.02-41.24-153.82-55.07Z"/>
  <path class="cls-8" d="m440.08,78.57c-54.83-10.54-110.27,38.09-123.84,108.63-.31,1.63-.58,3.26-.84,4.88,52.79,13.83,104.37,29.11,153.82,55.07,10.97,6.09,21.58,12.54,31.92,19.33,6.13-12.51,10.81-26.32,13.65-41.09,13.57-70.54-19.88-136.27-74.71-146.82Z"/>
  <path class="cls-8" d="m668.28,372.69c49.82-56.37,51.5-136.28,3.74-178.48-47.75-42.2-126.85-30.71-176.66,25.67-8.38,9.48-15.37,19.64-21.02,30.17,36.57,20.88,69.35,45.67,100.81,74.4,23.91,23.28,48.09,45.73,71.34,68.69,7.7-5.98,15.02-12.78,21.79-20.44Z"/>
  <path class="cls-8" d="m474.34,250.05c-27.93,52.03-22.44,113.21,17.27,148.31,41.26,36.46,105.92,32.81,154.87-5.23-23.25-22.96-47.43-45.41-71.34-68.69-31.46-28.72-64.24-53.52-100.81-74.4Z"/>
  <path class="cls-11" d="m400.35,230.76c-13.88,32.54-12.09,64.47,3.99,71.33s40.37-13.96,54.24-46.49c1.67-3.92,3.11-7.83,4.33-11.69-18.74-9.47-37.77-17.46-57.06-24.49-1.97,3.59-3.82,7.38-5.51,11.35Z"/>
  <path class="cls-11" d="m454.59,184.27c-14.12-6.02-34.56,9.3-48.73,35.15,19.28,7.03,38.32,15.03,57.06,24.49,8.9-28.18,5.82-53.61-8.32-59.64Z"/>
  <path class="cls-11" d="m553.4,305.43c-.31.52-.63,1.04-.93,1.57-17.69,30.63-19.75,62.55-4.61,71.29,13.35,7.71,35.6-5.18,52.8-29.32-8.5-8.12-17.02-16.27-25.51-24.54-7.17-6.55-14.41-12.88-21.75-19.01Z"/>
  <path class="cls-11" d="m611.91,267.36c-14.88-8.59-40.83,8.41-58.5,38.07,7.33,6.14,14.58,12.47,21.75,19.01,8.49,8.26,17.01,16.42,25.51,24.54,2.31-3.25,4.54-6.69,6.64-10.32,17.69-30.63,19.75-62.55,4.61-71.29Z"/>
  <path class="cls-8" d="m321.1,259.45h123.97l-18.51-32.06c-23.83-9.72-48.08-17.66-72.65-24.77l-32.81,56.83Z"/>
  <path class="cls-8" d="m353.91,202.62c24.57,7.11,48.81,15.05,72.65,24.77l-43.47-75.3-29.17,50.53Z"/>
  <path class="cls-8" d="m507.35,270.61l-37.49,64.94h116.78c-3.83-3.69-7.66-7.38-11.49-11.11-21.7-19.82-44.04-37.75-67.8-53.83Z"/>
  <path class="cls-8" d="m531.84,228.19l-24.49,42.42c23.77,16.08,46.1,34.02,67.8,53.83,3.82,3.72,7.65,7.42,11.49,11.11h7.19l-61.98-107.36Z"/>
  <path class="cls-15" d="m334.3,386.55c-2.18,14.01-.97,29.68,4.22,45.28,13.67,41.09,49.76,66.08,80.61,55.81,13.27-4.41,23.39-14.64,29.55-28.12-22.36-6.89-43.84-16.48-63.92-29.15-19-11.72-36.05-26.64-50.46-43.82Z"/>
  <path class="cls-15" d="m370.97,338.92c-19.87,6.58-32.97,25.63-36.67,49.28,14.96,17.74,32.67,33.15,52.4,45.26,20.85,13.08,43.16,22.99,66.38,30.11,8.47-18.45,9.7-42.81,1.61-67-14.2-42.44-51.68-68.25-83.71-57.65Z"/>
  <path class="cls-7" d="m336.85,389.53c-1.31,12.97.19,27.28,4.95,41.57,13.5,40.58,48.03,65.62,77.12,55.94,12.77-4.25,22.37-14.49,27.98-28.08-21.72-6.85-42.59-16.26-62.14-28.59-17.89-11.04-34.06-24.91-47.92-40.84Z"/>
  <path class="cls-7" d="m370.02,340.1c-18.84,6.27-30.77,25.58-33.18,49.43,13.86,15.93,30.03,29.8,47.92,40.84,19.54,12.33,40.42,21.74,62.14,28.59,7.16-17.35,7.82-40.16.24-62.92-13.5-40.58-48.03-65.62-77.12-55.94Z"/>
  <path class="cls-5" d="m386.66,366.76c-14.25,2.3-22.31,25.8-18,52.48,0,.03.01.06.02.09,5.19,3.93,10.55,7.63,16.09,11.04,10.6,6.68,21.58,12.5,32.88,17.53,3.73-9.67,4.91-22.89,2.63-37.01-4.31-26.68-19.36-46.44-33.62-44.14Z"/>
  <path class="cls-5" d="m368.67,419.33c4.33,26.63,19.36,46.35,33.6,44.05,6.71-1.08,12.05-6.87,15.37-15.47-11.3-5.03-22.29-10.85-32.88-17.53-5.53-3.42-10.9-7.11-16.09-11.04Z"/>
  <path class="cls-9" d="m276.34,303.72c-2.99-21.65-2.21-39.75-2.21-39.75.58-13.59,2.5-25.74,4.91-40.99.47-2.98,1.85-11.47,2.78-23.07.19-2.39.39-4.85.49-7.2.47-10.96,1.32-30.95-8.18-36.96-6.1-3.86-14.51-.7-18.4.74-2.11.78-4.46,1.86-6.98,3.44-12.54,48.89-4.63,105.94,27.71,144.55-.04-.25-.08-.51-.12-.76Z"/>
  <path class="cls-12" d="m248.75,159.93c-7.22,4.55-15.87,13.36-24.68,31.89-6.82,14.34-16.66,40.66-16.2,78.03l108.22,139.87c-5.83-10.02-32.82-57.4-39.64-105.25-32.33-38.62-40.25-95.66-27.71-144.55Z"/>
  <path class="cls-13" d="m585.4,550.81c-45.46-21.68-50.42-17.25-94.84-36.22-37.19-15.88-101.75-44.17-159.75-103.8-12.18-12.52-29.23-35.99-63.33-82.94,0,0-33.78-46.48-45.14-86.13-.75-2.61-6.61-23.25-19.44-49.02-10.09-20.27-17.34-29.35-28.72-31.69-12.47-2.57-24.8,4.01-28.3,5.89-5.11,2.73-9.73,7.16-13.73,13,13.68,1.25,22.6,16.64,27.87,27.19,55.83,131.69,147.44,249.07,274.84,317.78,62.98,35.79,128.83,52.96,194.68,81.59,23.03,10.01,47.45,23.54,63.49,43.99-1.28-8.28-3.46-16.41-6.64-23.95-14.25-33.77-45.86-49.39-100.99-75.68Z"/>
  <path class="cls-1" d="m629.54,606.44c-98.03-42.62-128.38-48.7-194.68-81.59-161.62-80.18-249.21-275.39-254.23-287.8-1.54-3.82-6.67-13.1-16.93-31.66-4.05-7.33-7.81-13.94-15.46-19.14-6-4.07-12.03-5.67-16.09-6.37-15,166.86,44.52,230.77,64.7,250.74,17.78,17.6,55.27,40.46,131.85,83.25,154.64,86.41,169.65,78.08,228.12,125.86,66.05,53.98,87.66,97.93,111.9,89.08,19.39-7.08,29.63-43.99,24.3-78.38-16.03-20.45-40.45-33.98-63.49-43.99Z"/>
  <path class="cls-2" d="m656.74,689.47c-170.34-28.63-340.69-62.98-446.61-213.29-42.94-58.69-65.85-121.67-87.32-188.95-12.73-35.36-31.05-95.86-79.81-83.5-10.92,66.02,64.08,205.44,161.93,308.64,156.65,165.21,403.13,270.56,465.26,208.34,3.68-3.69,6.87-8.21,9.5-13.26-6.85-8.77-13.83-16.98-22.96-17.99Z"/>
  <path class="cls-14" d="m581.86,597.77c-60.11-20.15-64.9-18.09-97.18-32.39-33.77-14.97-60.29-31.29-75.09-40.49-26.98-16.77-46.3-31.29-59.05-40.92-30.27-22.86-45.43-34.26-63.78-53.58-24.38-25.67-39.91-49.86-45.76-59.37-3.6-5.84-1.78-3.28-26.5-47.85-22.44-40.46-21.94-38.97-24.29-44.17,0,0-10.86-23.98-23.91-50.33-.82-1.65-2.43-4.62-4.74-8.14-.24-.37-.47-.7-.8-1.16-16.74-23.52-43.32-60.88-73.62-58.89-19.97,1.31-33.68,19.2-35.34,21.35-4.51,5.88-7.38,13.27-8.81,21.9,48.76-12.36,67.08,48.14,79.81,83.5,21.47,67.28,44.38,130.26,87.32,188.95,105.93,150.3,276.27,184.66,446.61,213.29.2.02.39.07.59.1,11.62.22,23.03-5.91,30.68-14.85.23-9-1.19-17.83-4.57-25.41-5.28-11.86-16.36-22.96-101.59-51.53Z"/>
  <path class="cls-8" d="m128.54,206.04c8.29,11.95,15.18,24.86,20.4,38.44.48,1.26,1.68,2.13,3.08,1.75,1.2-.33,2.23-1.81,1.75-3.08-5.38-13.99-12.36-27.31-20.9-39.64-.77-1.11-2.19-1.62-3.42-.9-1.1.64-1.67,2.31-.9,3.42h0Z"/>
  <path class="cls-8" d="m167.04,272.22c11.68,26.29,25.22,51.75,40.49,76.13,15.22,24.32,32.16,47.57,50.61,69.53,10.32,12.29,21.13,24.16,32.39,35.6,2.26,2.3,5.8-1.24,3.54-3.54-20.03-20.35-38.65-42.09-55.62-65.06-16.92-22.9-32.25-46.98-45.83-72.02-7.65-14.1-14.74-28.51-21.26-43.17-.55-1.23-2.35-1.52-3.42-.9-1.27.74-1.45,2.18-.9,3.42h0Z"/>
  <path class="cls-8" d="m314.77,476.25c6.75,12,17.95,20.4,28.89,28.34,11.68,8.47,23.65,16.56,35.88,24.23,24.32,15.27,49.66,28.91,75.79,40.83,14.83,6.76,29.92,12.97,45.21,18.62,1.27.47,2.74-.52,3.08-1.75.38-1.4-.47-2.61-1.75-3.08-26.74-9.87-52.81-21.51-78.02-34.83-25.12-13.28-49.38-28.2-72.54-44.66-11.92-8.47-24.89-17.19-32.23-30.23-1.58-2.8-5.9-.29-4.32,2.52h0Z"/>
  <path class="cls-8" d="m545.25,602.19c22.75,7.37,44.78,16.85,65.77,28.31,5.9,3.22,11.7,6.6,17.43,10.12,2.75,1.69,5.26-2.63,2.52-4.32-20.6-12.68-42.38-23.41-64.96-32.07-6.41-2.46-12.9-4.75-19.43-6.86-3.07-.99-4.38,3.83-1.33,4.82h0Z"/>
  <path class="cls-2" d="m657.33,689.56c8.84,1.3,15.66,9.32,22.37,17.89,5.06-9.71,8.02-21.36,8.32-32.74-7.65,8.94-19.06,15.07-30.68,14.85Z"/>
  <path class="cls-2" d="m140.58,325.53c-35.26,10.67-63.9,53.41-81.75,102.53,25.2,30.31,50.87,59.83,77.24,88.74,12.27-28.86,29.86-55.57,52.86-76.72,2.23-8.83,3.64-18.57,4.06-31.35.41-12.43,1.88-56.91-16.08-76.57-12.36-13.53-28.24-9.08-36.32-6.63Z"/>
  <path class="cls-2" d="m229.65,416.83c-39.2,8.58-73.37,49.38-96.22,97.11,24.83,27.31,50.26,54.08,76.49,80.43,15.3-26.44,37.09-48.63,64.88-62.15,2.87-8.38,4.97-17.71,6.26-29.9,1.3-12.3,5.96-56.33-12.27-76.85-12.55-14.12-30.16-10.61-39.15-8.64Z"/>
  <path class="cls-2" d="m351.09,502.99c-17.08-8.87-37.76-2.72-48.28.55-42.57,13.25-76.03,47.73-97.21,86.45,28.51,28.79,57.94,57.1,88.53,85.09,15.28-27.11,37.97-50.32,68.09-64.05,8.98-16.44,14.82-28.03,14.46-49.15-.17-10.05-.79-46.01-25.6-58.89Z"/>
  <path class="cls-2" d="m384.81,742.78c3.79-1.56,7.57-3.16,11.34-4.74-20.07-8.54-40.03-17.76-59.73-27.65,15.58,11.89,31.64,22.85,48.39,32.39Z"/>
  <path class="cls-2" d="m448.76,591.09c-12.74-9.62-30.71-7.28-39.88-5.96-50.08,7.17-92.31,48.61-113.92,90.71,1.31,1.2,2.61,2.41,3.93,3.61,12.28,10.79,24.75,21.18,37.54,30.94,19.7,9.89,39.66,19.11,59.73,27.65,3.61-1.52,7.22-3.02,10.83-4.44,2.03-3.8,4.26-7.81,6.78-12.07,25.8-43.58,42.14-47.51,47.21-78.27,1.38-8.35,6.3-38.21-12.21-52.18Z"/>
  <path class="cls-13" d="m121.38,339.65c-3.36-11.49-4.87-18.39-4.87-18.39-.82-3.74-7.23-33.31-21.27-70.23-11.04-29.03-18.98-42.04-31.43-45.4-13.65-3.68-27.14,5.75-30.97,8.43C11.9,228.7-1.53,277.14.14,339.2l.99.99-.99-.99c.01.47.02.94.04,1.41,8.57,34.36,20.97,66.65,36.55,96.95,16.88-40.15,47.01-74.91,84.65-97.91Zm-83.03-8.05l-1.43-1.43,1.43,1.43v-1.43,1.43Z"/>
  <path class="cls-1" d="m25.42,474.18c2.52-12.57,6.35-24.82,11.31-36.62-15.58-30.3-27.98-62.59-36.55-96.95,1.24,40.65,8.95,87.05,25.24,133.57Z"/>
  <path class="cls-13" d="m504.56,677.28c-18.26-4.47-35.22-9.47-50.78-14.63-7.81,21.31-24.98,37.94-31.8,59.74-3.13,7.6-6.39,15.05-9.28,22.55,8.81,3.58,17.63,7.04,26.45,10.38,59.46,22.38,120.97,34.16,183.37,40.36,29.3-13.23,39.36-29.56,41.78-33.73,4.29-7.39,13.9-23.97,9.57-38.28-9.2-30.38-72.88-22.76-169.32-46.39Z"/>
  <path class="cls-1" d="m439.16,755.31c-8.82-3.33-17.64-6.79-26.45-10.38-4.79,12.46-8.53,25.02-8.8,38.47,34.44,10.09,73.15,19.09,115.28,25.18,11.97,1.73,50.1,6.81,92.12-8.36,4.03-1.45,7.75-2.98,11.22-4.55-62.39-6.2-123.91-17.97-183.37-40.36Z"/>
  <path class="cls-1" d="m164.32,657.97c-3.18.61-6.15.8-8.94.66,15.01,11.7,30.83,22.51,47.8,33.54-6.06-11.04-7.5-25.19-5.94-38.49-1.57,13.3-.12,27.46,5.94,38.49,9.53,6.19,19.4,12.45,29.73,18.97,0,0,.25.16.76.47,22.3,2.21,41.85-7.67,55.19-25.01-13.34,17.34-32.9,27.22-55.19,25.01,7.55,4.64,71.23,42.78,170.24,71.79.27-13.45,4.01-26.01,8.8-38.47-73.71-29.98-146.66-68.85-210.83-117.54-9.83,14.21-23.09,26.63-37.56,30.58Z"/>
  <path class="cls-1" d="m36.73,437.56c-4.96,11.8-8.79,24.05-11.31,36.62,14.14,40.36,34.73,80.82,63.2,117.7,1.65,2.14,3.3,4.22,4.96,6.28,11.42-8.12,20.85-21.75,26.37-32.78-5.52,11.04-14.95,24.66-26.37,32.78,10.23,12.7,20.62,23.95,31.34,34.23-5.38-13.73-7.05-30.29-6.41-43.12-.64,12.83,1.03,29.39,6.41,43.12,9.84,9.44,19.95,18.06,30.46,26.25,2.79.14,5.76-.05,8.94-.66,14.47-3.95,27.73-16.37,37.56-30.58-68.23-51.78-126.5-114.67-165.15-189.84Z"/>
  <path class="cls-1" d="m233.29,529.67c-18.44-18.57-43.87-44.53-67.38-85.02-23.92-41.2-37.87-82.17-44.54-105-37.64,23-67.77,57.76-84.65,97.91,38.66,75.17,96.92,138.06,165.15,189.84.86-1.25,1.71-2.51,2.52-3.78-.81,1.27-1.66,2.53-2.52,3.78,64.16,48.69,137.11,87.56,210.83,117.54,2.88-7.49,6.15-14.95,9.28-22.55,6.81-21.81,23.99-38.43,31.8-59.74-53.15-17.65-89.72-37.34-104-45.35-63.38-35.57-103.07-74.11-116.49-87.63Z"/>
  <path class="cls-12" d="m120.21,554.4c-1.7,6.15-3.2,12.34-4.46,18.55,1.57-2.59,2.98-5.15,4.19-7.57-1.21,2.43-2.62,4.98-4.19,7.57-.55,2.72-1.07,5.45-1.54,8.17,0,.03,0,.05-.01.08,2.03-4.42,3.88-8.89,5.74-12.96-1.85,4.08-3.71,8.54-5.74,12.96-2.57,19.7-7.18,41.45-6.48,61.87,4.19-.49,8.37-1.81,12.24-4.39,2.11-1.41,3.91-3.06,5.48-4.98-5.8-13.98-7.6-31.2-6.93-44.44-.66,13.24,1.13,30.46,6.93,44.44,8.3-10.1,10.19-27.66,16.29-57.56-7.37-7.08-14.55-14.33-21.53-21.75Z"/>
  <path class="cls-12" d="m120.21,554.4c6.98,7.42,14.16,14.67,21.53,21.75,2.4-11.74,5.45-25.39,9.79-41.24,12.87-46.94,23.49-63.49,28.95-86.02-29.24,28.01-49.32,65.86-60.27,105.51Z"/>
  <path class="cls-12" d="m62.69,602.6c-15.46-7.13-21.04-25.13-24.12-42.51,1,13.19,3.44,37.2,15.33,55.47,8.08,12.42,17.25,17.14,23.53,20.38,3.45,1.78,16.93,8.71,30.31,7.14-.71-20.45,3.92-42.23,6.49-61.96.47-2.73.98-5.45,1.54-8.17-11.4,18.81-31.68,39.71-53.07,29.65Z"/>
  <path class="cls-9" d="m38.37,557.47c.06.81.12,1.69.19,2.62,3.09,17.38,8.67,35.38,24.12,42.51,21.39,10.07,41.67-10.83,53.07-29.65,1.26-6.21,2.76-12.4,4.46-18.55-26.88-28.58-50.72-59.66-70.54-93.36-9.15,33.76-13.32,68.52-11.3,96.43Z"/>
  <path class="cls-9" d="m134.63,335.76c-38.88,12.25-69.26,67.29-84.96,125.28,19.83,33.7,43.66,64.78,70.54,93.36,10.95-39.65,31.03-77.5,60.27-105.51,2.11-8.72,3.45-18.34,3.85-30.96.39-12.28,1.78-56.2-15.25-75.62-11.72-13.36-26.78-8.97-34.45-6.55Z"/>
  <path class="cls-12" d="m192.79,620.38c3.01,2.36,6.04,4.7,9.09,7.01.86-1.25,1.71-2.51,2.52-3.78-.81,1.27-1.66,2.53-2.52,3.78,5.36,4.07,10.78,8.07,16.26,12,3.2-10.57,7.21-22.96,12.83-37.45,15.91-41.01,27.61-54.76,34.38-74.65-36.84,18-61.54,53.58-72.57,93.09Z"/>
  <path class="cls-12" d="m187.91,643.78c5.15-4.83,9.85-10.45,13.97-16.38-3.05-2.32-6.08-4.65-9.09-7.01-2.14,7.68-3.78,15.52-4.88,23.4Z"/>
  <path class="cls-12" d="m187.91,643.78c-2.3,16.56-2.28,33.33.2,49.38,1.72-.5,3.42-1.15,5.07-2,2.78-1.43,5.09-3.22,7.09-5.41-3.59-9.82-4.31-21.23-3.03-32.07-1.28,10.84-.55,22.24,3.03,32.07,7.69-8.43,10.77-22.9,17.86-46.35-5.48-3.93-10.9-7.93-16.26-12-4.11,5.94-8.82,11.56-13.97,16.38Z"/>
  <path class="cls-12" d="m189.96,641.8c-7.67,7.68-16.41,13.66-25.64,16.18-31.2,6-43.28-26.22-45.53-53.66-.2,3.59-.29,7.1-.24,10.49.15,10.9.46,33.89,11.98,51.67,7.31,11.29,16.18,15.91,22.25,19.07,3.95,2.06,21.49,11.18,37.23,6.63-2.53-16.38-2.49-33.5-.05-50.38Z"/>
  <path class="cls-9" d="m126.08,560.55c-4.02,15.23-6.53,30.15-7.29,43.76,2.25,27.44,14.33,59.66,45.53,53.66,9.23-2.52,17.97-8.5,25.64-16.18.99-6.85,2.4-13.65,4.18-20.35-24.16-18.85-46.99-39.13-68.06-60.89Z"/>
  <path class="cls-9" d="m228.05,425.71c-47.32,10.41-86.21,75.09-101.96,134.85,21.07,21.76,43.9,42.04,68.06,60.89,10.73-40.32,35.64-76.83,73.11-95.14,2.49-7.31,4.32-15.44,5.44-26.07,1.13-10.73,5.18-49.11-10.65-67-10.89-12.31-26.19-9.25-33.99-7.53Z"/>
  <path class="cls-12" d="m285.62,690.52c1.11-1.26,2.2-2.56,3.24-3.91-1.04,1.35-2.12,2.65-3.24,3.91-6.79,18.52-10.49,38.11-11.05,57.03,8.45-.44,17.61-2.18,25.42-6.59,13.15-7.43,15.58-18.55,20.29-38.86-10.86-5.71-21.62-11.62-32.26-17.75-.84,2.04-1.64,4.1-2.4,6.17Z"/>
  <path class="cls-12" d="m288.02,684.34c10.64,6.14,21.4,12.05,32.26,17.75,2.65-11.43,6.02-25.77,12.45-44.02,7.82-22.21,15.21-36.19,21.06-47.62-31.04,15.11-52.95,42.65-65.76,73.89Z"/>
  <path class="cls-9" d="m344.15,510.71c-14.76-8.19-32.64-2.51-41.74.51-49.43,16.42-84.64,68.22-98.98,117.35,26.87,20.28,55.26,38.85,84.59,55.76,12.81-31.24,34.72-58.78,65.76-73.89,7.76-15.17,12.81-25.87,12.5-45.38-.15-9.28-.68-42.47-22.13-54.37Z"/>
  <path class="cls-9" d="m196.67,664.36c.21,21.08,8.81,41.68,32.07,46.58,22.57,3.98,42.67-4.35,56.88-20.42.76-2.07,1.56-4.13,2.4-6.17-29.33-16.92-57.72-35.49-84.59-55.76-3.59,12.29-5.89,24.42-6.76,35.78Z"/>
  <path class="cls-12" d="m228.74,710.94c-23.26-4.9-31.85-25.49-32.07-46.58-.78,10.26-.42,19.9,1.17,28.48,1.7,9.17,5.3,28.49,21.57,41.17,10.34,8.05,21.59,10.15,29.3,11.59,3.27.61,13.85,2.58,25.85,1.95.56-18.92,4.26-38.51,11.05-57.03-14.22,16.07-34.32,24.4-56.88,20.42Z"/>
  <path class="cls-12" d="m318.92,755.31c-19.02-7.61-25.68-30.94-25.96-52.08-3.75,12.04-5.71,23.63-5.57,33.93.11,8.38.35,26.05,12.52,39.75,7.72,8.7,17.12,12.28,23.56,14.72,4.65,1.77,27.01,10.27,44.91,3.68,17.21-6.34,17.77-22.05,33.53-54.84-.53-.22-1.05-.45-1.57-.67-26.2,11.54-52.61,27.29-81.41,15.51Z"/>
  <path class="cls-12" d="m400.32,739.81c.52.22,1.05.45,1.57.67.27-.57.54-1.13.82-1.71-.8.34-1.6.69-2.4,1.04Z"/>
  <path class="cls-9" d="m292.96,703.23c.28,21.15,6.94,44.48,25.96,52.08,28.8,11.78,55.2-3.97,81.41-15.51-34.73-14.62-69.19-31.22-102.54-49.91-1.84,4.48-3.46,8.94-4.83,13.34Z"/>
  <path class="cls-9" d="m440.51,598.02c-11.52-9.5-27.78-7.19-36.07-5.89-48.26,7.54-88.48,53.52-106.65,97.77,33.35,18.69,67.81,35.3,102.54,49.91.8-.35,1.6-.7,2.4-1.04,1.83-3.75,3.86-7.72,6.13-11.92,23.33-43.04,38.11-46.92,42.7-77.3,1.24-8.24,5.7-37.74-11.04-51.53Z"/>
  <path class="cls-8" d="m601.71,37.88c38.71,12.82,73.42,36.02,100.72,66.27,23.63,26.18,39.76,58.65,47.6,93.37,4.36,19.33,6.08,38.8,6.87,58.56.38,9.62,15.39,9.67,15,0-1.57-39.4-7.86-77.9-25.42-113.6-18.09-36.78-47.32-67.49-81.25-90.14-18.43-12.3-38.51-21.96-59.54-28.93-9.18-3.04-13.12,11.44-3.99,14.46h0Z"/>
  <path class="cls-8" d="m764.1,288.78l-.79-.58c-.86-.55-1.79-.84-2.79-.89-1-.22-1.99-.18-2.99.13-.98.23-1.83.68-2.55,1.34-.82.53-1.46,1.23-1.93,2.1l-.76,1.79c-.36,1.33-.36,2.66,0,3.99l.76,1.79c.67,1.13,1.56,2.02,2.69,2.69l.79.58c.86.55,1.79.84,2.79.89,1,.22,1.99.18,2.99-.13.98-.23,1.83-.68,2.55-1.34.82-.53,1.46-1.23,1.93-2.1l.76-1.79c.36-1.33.36-2.66,0-3.99l-.76-1.79c-.67-1.13-1.56-2.02-2.69-2.69h0Z"/>
  <path class="cls-8" d="m752.44,328.47c3.22,0,3.22-5,0-5s-3.22,5,0,5h0Z"/>
  <path class="cls-8" d="m572.48,27.59l.5-.85c.55-.86.84-1.79.89-2.79.22-1,.18-1.99-.13-2.99-.23-.98-.68-1.83-1.34-2.55-.53-.82-1.23-1.46-2.1-1.93l-1.79-.76c-1.33-.36-2.66-.36-3.99,0l-1.79.76c-1.13.67-2.02,1.56-2.69,2.69l-.5.85c-.55.86-.84,1.79-.89,2.79-.22,1-.18,1.99.13,2.99.23.98.68,1.83,1.34,2.55.53.82,1.23,1.46,2.1,1.93l1.79.76c1.33.36,2.66.36,3.99,0l1.79-.76c1.13-.67,2.02-1.56,2.69-2.69h0Z"/>
  <path class="cls-8" d="m534.66,21.47c3.22,0,3.22-5,0-5s-3.22,5,0,5h0Z"/>
</svg>